<svg xmlns="http://www.w3.org/2000/svg" viewBox="0 0 100 100" width="100" height="100" shape-rendering="crispEdges">
  <rect width="100" height="100" fill="#0a0a0a"/>
  <rect x="36" y="4" width="4" height="4" fill="#fff"/>
  <rect x="40" y="4" width="4" height="4" fill="#fff"/>
  <rect x="44" y="4" width="4" height="4" fill="#fff"/>
  <rect x="48" y="4" width="4" height="4" fill="#fff"/>
  <rect x="52" y="4" width="4" height="4" fill="#fff"/>
  <rect x="56" y="4" width="4" height="4" fill="#fff"/>
  <rect x="60" y="4" width="4" height="4" fill="#fff"/>
  <rect x="28" y="8" width="4" height="4" fill="#fff"/>
  <rect x="32" y="8" width="4" height="4" fill="#fff"/>
  <rect x="64" y="8" width="4" height="4" fill="#fff"/>
  <rect x="68" y="8" width="4" height="4" fill="#fff"/>
  <rect x="24" y="12" width="4" height="4" fill="#fff"/>
  <rect x="48" y="12" width="4" height="4" fill="#fff"/>
  <rect x="72" y="12" width="4" height="4" fill="#fff"/>
  <rect x="16" y="16" width="4" height="4" fill="#fff"/>
  <rect x="20" y="16" width="4" height="4" fill="#fff"/>
  <rect x="48" y="16" width="4" height="4" fill="#fff"/>
  <rect x="76" y="16" width="4" height="4" fill="#fff"/>
  <rect x="80" y="16" width="4" height="4" fill="#fff"/>
  <rect x="16" y="20" width="4" height="4" fill="#fff"/>
  <rect x="44" y="20" width="4" height="4" fill="#fff"/>
  <rect x="52" y="20" width="4" height="4" fill="#fff"/>
  <rect x="80" y="20" width="4" height="4" fill="#fff"/>
  <rect x="12" y="24" width="4" height="4" fill="#fff"/>
  <rect x="44" y="24" width="4" height="4" fill="#fff"/>
  <rect x="52" y="24" width="4" height="4" fill="#fff"/>
  <rect x="84" y="24" width="4" height="4" fill="#fff"/>
  <rect x="8" y="28" width="4" height="4" fill="#fff"/>
  <rect x="44" y="28" width="4" height="4" fill="#fff"/>
  <rect x="52" y="28" width="4" height="4" fill="#fff"/>
  <rect x="88" y="28" width="4" height="4" fill="#fff"/>
  <rect x="8" y="32" width="4" height="4" fill="#fff"/>
  <rect x="40" y="32" width="4" height="4" fill="#fff"/>
  <rect x="56" y="32" width="4" height="4" fill="#fff"/>
  <rect x="88" y="32" width="4" height="4" fill="#fff"/>
  <rect x="4" y="36" width="4" height="4" fill="#fff"/>
  <rect x="12" y="36" width="4" height="4" fill="#fff"/>
  <rect x="16" y="36" width="4" height="4" fill="#fff"/>
  <rect x="20" y="36" width="4" height="4" fill="#fff"/>
  <rect x="24" y="36" width="4" height="4" fill="#fff"/>
  <rect x="28" y="36" width="4" height="4" fill="#fff"/>
  <rect x="32" y="36" width="4" height="4" fill="#fff"/>
  <rect x="36" y="36" width="4" height="4" fill="#fff"/>
  <rect x="40" y="36" width="4" height="4" fill="#fff"/>
  <rect x="44" y="36" width="4" height="4" fill="#fff"/>
  <rect x="48" y="36" width="4" height="4" fill="#fff"/>
  <rect x="52" y="36" width="4" height="4" fill="#fff"/>
  <rect x="56" y="36" width="4" height="4" fill="#fff"/>
  <rect x="60" y="36" width="4" height="4" fill="#fff"/>
  <rect x="64" y="36" width="4" height="4" fill="#fff"/>
  <rect x="68" y="36" width="4" height="4" fill="#fff"/>
  <rect x="72" y="36" width="4" height="4" fill="#fff"/>
  <rect x="76" y="36" width="4" height="4" fill="#fff"/>
  <rect x="80" y="36" width="4" height="4" fill="#fff"/>
  <rect x="84" y="36" width="4" height="4" fill="#fff"/>
  <rect x="92" y="36" width="4" height="4" fill="#fff"/>
  <rect x="4" y="40" width="4" height="4" fill="#fff"/>
  <rect x="16" y="40" width="4" height="4" fill="#fff"/>
  <rect x="20" y="40" width="4" height="4" fill="#fff"/>
  <rect x="40" y="40" width="4" height="4" fill="#fff"/>
  <rect x="56" y="40" width="4" height="4" fill="#fff"/>
  <rect x="76" y="40" width="4" height="4" fill="#fff"/>
  <rect x="80" y="40" width="4" height="4" fill="#fff"/>
  <rect x="92" y="40" width="4" height="4" fill="#fff"/>
  <rect x="4" y="44" width="4" height="4" fill="#fff"/>
  <rect x="24" y="44" width="4" height="4" fill="#fff"/>
  <rect x="36" y="44" width="4" height="4" fill="#fff"/>
  <rect x="56" y="44" width="4" height="4" fill="#fff"/>
  <rect x="72" y="44" width="4" height="4" fill="#fff"/>
  <rect x="92" y="44" width="4" height="4" fill="#fff"/>
  <rect x="4" y="48" width="4" height="4" fill="#fff"/>
  <rect x="28" y="48" width="4" height="4" fill="#fff"/>
  <rect x="36" y="48" width="4" height="4" fill="#fff"/>
  <rect x="60" y="48" width="4" height="4" fill="#fff"/>
  <rect x="68" y="48" width="4" height="4" fill="#fff"/>
  <rect x="92" y="48" width="4" height="4" fill="#fff"/>
  <rect x="4" y="52" width="4" height="4" fill="#fff"/>
  <rect x="32" y="52" width="4" height="4" fill="#fff"/>
  <rect x="36" y="52" width="4" height="4" fill="#fff"/>
  <rect x="60" y="52" width="4" height="4" fill="#fff"/>
  <rect x="64" y="52" width="4" height="4" fill="#fff"/>
  <rect x="92" y="52" width="4" height="4" fill="#fff"/>
  <rect x="4" y="56" width="4" height="4" fill="#fff"/>
  <rect x="36" y="56" width="4" height="4" fill="#fff"/>
  <rect x="40" y="56" width="4" height="4" fill="#fff"/>
  <rect x="56" y="56" width="4" height="4" fill="#fff"/>
  <rect x="60" y="56" width="4" height="4" fill="#fff"/>
  <rect x="92" y="56" width="4" height="4" fill="#fff"/>
  <rect x="4" y="60" width="4" height="4" fill="#fff"/>
  <rect x="32" y="60" width="4" height="4" fill="#fff"/>
  <rect x="44" y="60" width="4" height="4" fill="#fff"/>
  <rect x="48" y="60" width="4" height="4" fill="#fff"/>
  <rect x="52" y="60" width="4" height="4" fill="#fff"/>
  <rect x="64" y="60" width="4" height="4" fill="#fff"/>
  <rect x="92" y="60" width="4" height="4" fill="#fff"/>
  <rect x="8" y="64" width="4" height="4" fill="#fff"/>
  <rect x="32" y="64" width="4" height="4" fill="#fff"/>
  <rect x="44" y="64" width="4" height="4" fill="#fff"/>
  <rect x="52" y="64" width="4" height="4" fill="#fff"/>
  <rect x="64" y="64" width="4" height="4" fill="#fff"/>
  <rect x="88" y="64" width="4" height="4" fill="#fff"/>
  <rect x="8" y="68" width="4" height="4" fill="#fff"/>
  <rect x="32" y="68" width="4" height="4" fill="#fff"/>
  <rect x="40" y="68" width="4" height="4" fill="#fff"/>
  <rect x="56" y="68" width="4" height="4" fill="#fff"/>
  <rect x="64" y="68" width="4" height="4" fill="#fff"/>
  <rect x="88" y="68" width="4" height="4" fill="#fff"/>
  <rect x="12" y="72" width="4" height="4" fill="#fff"/>
  <rect x="28" y="72" width="4" height="4" fill="#fff"/>
  <rect x="32" y="72" width="4" height="4" fill="#fff"/>
  <rect x="36" y="72" width="4" height="4" fill="#fff"/>
  <rect x="60" y="72" width="4" height="4" fill="#fff"/>
  <rect x="64" y="72" width="4" height="4" fill="#fff"/>
  <rect x="68" y="72" width="4" height="4" fill="#fff"/>
  <rect x="84" y="72" width="4" height="4" fill="#fff"/>
  <rect x="16" y="76" width="4" height="4" fill="#fff"/>
  <rect x="28" y="76" width="4" height="4" fill="#fff"/>
  <rect x="68" y="76" width="4" height="4" fill="#fff"/>
  <rect x="80" y="76" width="4" height="4" fill="#fff"/>
  <rect x="16" y="80" width="4" height="4" fill="#fff"/>
  <rect x="20" y="80" width="4" height="4" fill="#fff"/>
  <rect x="76" y="80" width="4" height="4" fill="#fff"/>
  <rect x="80" y="80" width="4" height="4" fill="#fff"/>
  <rect x="24" y="84" width="4" height="4" fill="#fff"/>
  <rect x="72" y="84" width="4" height="4" fill="#fff"/>
  <rect x="28" y="88" width="4" height="4" fill="#fff"/>
  <rect x="32" y="88" width="4" height="4" fill="#fff"/>
  <rect x="64" y="88" width="4" height="4" fill="#fff"/>
  <rect x="68" y="88" width="4" height="4" fill="#fff"/>
  <rect x="36" y="92" width="4" height="4" fill="#fff"/>
  <rect x="40" y="92" width="4" height="4" fill="#fff"/>
  <rect x="44" y="92" width="4" height="4" fill="#fff"/>
  <rect x="48" y="92" width="4" height="4" fill="#fff"/>
  <rect x="52" y="92" width="4" height="4" fill="#fff"/>
  <rect x="56" y="92" width="4" height="4" fill="#fff"/>
  <rect x="60" y="92" width="4" height="4" fill="#fff"/>
</svg>
